<?xml version="1.0" standalone="no"?>
<!DOCTYPE svg PUBLIC "-//W3C//DTD SVG 20010904//EN"
 "http://www.w3.org/TR/2001/REC-SVG-20010904/DTD/svg10.dtd">
<svg version="1.0" xmlns="http://www.w3.org/2000/svg"
 width="1116.000000pt" height="864.000000pt" viewBox="0 0 1116.000000 864.000000"
 preserveAspectRatio="xMidYMid meet">

<g transform="translate(0.000000,864.000000) scale(0.100000,-0.100000)"
fill="#000000" stroke="none">
<path d="M8601 7518 c13 -46 13 -45 -26 -52 -22 -4 -35 -13 -35 -22 0 -11 6
-14 20 -10 11 3 28 8 38 11 15 4 21 -2 28 -27 5 -17 15 -33 23 -36 10 -3 12 4
6 35 -6 38 -5 40 25 49 52 15 32 35 -24 23 -15 -3 -21 4 -28 29 -5 17 -15 32
-23 32 -11 0 -12 -7 -4 -32z"/>
<path d="M3210 6995 l0 -455 2375 0 2375 0 0 455 0 455 -2375 0 -2375 0 0
-455z m2543 128 l-2 -168 -166 -3 -165 -2 0 170 0 170 168 0 167 0 -2 -167z
m281 -308 c-3 -7 4 -23 16 -35 36 -36 -2 -104 -57 -101 -15 1 -41 2 -57 2 -16
0 -36 4 -43 10 -9 8 -13 8 -13 0 0 -19 -40 -13 -41 7 -1 15 -2 15 -6 0 -5 -18
-49 -26 -115 -19 -34 3 -38 6 -38 32 0 38 -19 37 -33 -1 -7 -18 -19 -30 -30
-30 -16 0 -17 5 -11 46 5 37 4 46 -7 42 -9 -3 -13 -15 -11 -32 5 -43 -13 -56
-79 -56 -59 0 -59 0 -45 23 15 23 32 93 28 115 -2 8 13 12 47 12 39 0 53 -4
60 -19 6 -10 8 -21 4 -25 -3 -3 13 -4 36 -2 29 2 44 -1 48 -10 4 -11 9 -11 26
1 13 8 34 11 50 8 26 -5 27 -8 21 -42 -5 -28 -4 -34 6 -24 7 6 13 23 13 37 0
14 5 26 11 27 6 0 26 2 44 3 18 2 35 -1 38 -6 3 -5 11 -4 19 2 21 18 37 1 33
-32 -3 -16 -1 -31 3 -34 9 -5 33 70 31 98 0 10 8 18 21 20 29 5 37 0 31 -17z
m-1128 7 c19 -12 34 -50 28 -69 -6 -17 -6 -17 7 -1 18 22 62 38 78 28 20 -12
3 -49 -25 -56 -13 -3 -24 -11 -24 -16 0 -6 7 -7 16 -4 9 3 21 6 28 6 13 0 36
62 36 99 0 16 6 21 26 21 20 0 24 -4 19 -19 -4 -14 0 -21 15 -26 22 -7 27 -43
9 -76 -14 -26 -53 -41 -81 -30 -13 4 -35 5 -51 0 -38 -11 -57 -2 -57 27 l0 23
-25 -24 c-20 -21 -34 -25 -86 -25 -58 0 -61 1 -47 18 20 22 50 112 37 112 -5
0 -9 5 -9 10 0 11 89 13 106 2z m1229 -9 c-4 -10 -8 -36 -10 -58 l-4 -40 14
40 c7 22 14 48 14 58 1 11 9 17 27 17 19 0 25 -4 21 -14 -14 -37 -28 -99 -23
-104 3 -3 11 9 17 27 6 17 19 35 28 40 21 11 83 2 74 -12 -3 -5 -6 -26 -7 -46
-1 -35 -3 -36 -44 -42 -32 -4 -45 -2 -49 8 -4 10 -9 11 -18 3 -7 -6 -26 -10
-42 -8 -16 1 -34 -1 -40 -5 -20 -12 -34 18 -23 49 6 15 9 33 6 41 -3 7 1 13
10 13 9 0 14 8 13 18 -2 28 0 32 22 32 16 0 19 -4 14 -17z m-908 -40 c4 -10
10 -9 26 2 28 17 81 9 73 -12 -3 -8 -6 -30 -6 -49 l0 -34 -51 0 -51 0 4 33 c3
29 1 33 -15 29 -11 -3 -24 -18 -29 -33 -6 -19 -17 -29 -30 -29 -17 0 -19 4
-12 33 4 17 7 40 6 49 -1 25 77 35 85 11z"/>
<path d="M5430 7115 l0 -155 155 0 155 0 0 155 0 155 -155 0 -155 0 0 -155z
m151 44 l21 -21 -7 22 c-6 20 -4 21 36 18 42 -3 44 -4 52 -46 10 -53 -2 -72
-49 -72 -30 0 -34 3 -34 28 l0 27 -13 -25 c-10 -21 -21 -26 -60 -28 l-47 -3 0
45 c0 24 -3 51 -6 60 -10 26 80 22 107 -5z"/>
<path d="M5510 7120 c0 -33 3 -40 20 -40 16 0 40 26 40 44 0 10 -32 36 -46 36
-10 0 -14 -12 -14 -40z"/>
<path d="M5630 7150 c0 -5 5 -10 10 -10 6 0 10 5 10 10 0 6 -4 10 -10 10 -5 0
-10 -4 -10 -10z"/>
<path d="M5630 7096 c0 -9 7 -16 16 -16 9 0 14 5 12 12 -6 18 -28 21 -28 4z"/>
<path d="M5726 6733 c-6 -14 -5 -15 5 -6 7 7 10 15 7 18 -3 3 -9 -2 -12 -12z"/>
<path d="M6005 6730 c-4 -12 -5 -24 -2 -27 3 -2 8 5 12 17 4 12 5 24 2 27 -3
2 -8 -5 -12 -17z"/>
<path d="M5527 6734 c-4 -4 -7 -14 -7 -23 0 -11 3 -12 11 -4 6 6 10 16 7 23
-2 6 -7 8 -11 4z"/>
<path d="M4852 6767 c-17 -64 -15 -73 7 -53 24 22 32 61 16 82 -10 15 -14 10
-23 -29z"/>
<path d="M5075 6730 c-4 -12 -5 -24 -2 -27 3 -2 8 5 12 17 4 12 5 24 2 27 -3
2 -8 -5 -12 -17z"/>
<path d="M6237 6753 c-4 -3 -7 -13 -7 -22 1 -13 3 -13 11 2 11 19 8 33 -4 20z"/>
<path d="M5267 6741 c-4 -17 -3 -21 5 -13 5 5 8 16 6 23 -3 8 -7 3 -11 -10z"/>
<path d="M8902 7431 c-11 -6 -11 -17 -3 -47 6 -22 11 -42 11 -45 0 -4 -20 -12
-45 -19 -41 -11 -55 -27 -39 -43 3 -3 26 0 50 8 49 15 49 15 59 -38 8 -42 15
-49 35 -37 11 7 11 16 2 48 -7 22 -12 42 -12 44 0 3 20 11 45 18 41 11 55 27
39 43 -3 3 -26 0 -50 -8 l-44 -13 -12 42 c-14 50 -19 57 -36 47z"/>
<path d="M8454 7276 c-3 -7 2 -42 11 -76 9 -34 15 -63 13 -65 -2 -1 -33 -10
-70 -20 -70 -18 -75 -23 -58 -55 9 -16 14 -17 52 -6 101 30 95 32 108 -27 20
-84 34 -100 67 -79 10 6 8 23 -7 75 l-19 68 25 10 c14 5 45 14 70 20 35 9 44
16 44 34 0 12 -2 24 -6 27 -3 3 -37 -2 -75 -12 l-70 -18 -10 25 c-5 13 -9 27
-9 31 0 4 -5 24 -11 45 -7 27 -15 37 -30 37 -11 0 -22 -6 -25 -14z"/>
<path d="M2483 7213 c-7 -2 -13 -11 -13 -19 0 -11 19 -14 93 -14 98 0 114 4
96 27 -11 13 -148 18 -176 6z"/>
<path d="M2240 7164 c-86 -29 -84 -28 -77 -48 5 -13 11 -14 34 -4 15 6 55 19
88 28 36 10 60 23 60 31 0 22 -25 20 -105 -7z"/>
<path d="M2792 7174 c5 -22 165 -75 179 -58 13 15 -20 34 -100 58 -68 20 -83
20 -79 0z"/>
<path d="M1958 7020 c-62 -46 -86 -80 -55 -80 6 0 38 20 71 45 32 24 63 46 69
48 12 4 2 37 -10 37 -4 0 -38 -23 -75 -50z"/>
<path d="M1730 6793 c-50 -69 -58 -87 -41 -98 12 -7 124 142 116 155 -12 20
-26 9 -75 -57z"/>
<path d="M1596 6550 c-20 -50 -20 -50 3 -50 18 0 41 43 41 76 0 29 -29 12 -44
-26z"/>
<path d="M2657 6312 c-39 -3 -48 -6 -45 -20 2 -12 11 -16 30 -14 l27 3 -24
-71 -24 -71 52 3 c38 2 52 7 52 18 0 11 -8 14 -29 12 -20 -2 -27 1 -24 10 21
55 39 119 36 126 -2 4 -25 6 -51 4z"/>
<path d="M2500 6253 c0 -27 3 -65 6 -85 6 -37 8 -38 50 -38 38 0 44 3 44 21 0
18 -4 20 -31 14 -28 -6 -30 -5 -27 17 2 17 10 24 31 26 37 5 29 26 -11 30 -42
4 -44 32 -2 32 20 0 30 5 30 15 0 11 -12 15 -45 15 l-45 0 0 -47z"/>
<path d="M2432 6239 l3 -50 -32 38 c-18 21 -33 41 -33 46 0 4 -11 7 -24 7 -22
0 -23 -3 -19 -52 7 -94 13 -118 29 -118 13 0 15 10 12 50 -1 28 -1 50 2 50 3
0 20 -21 39 -45 18 -25 42 -45 52 -45 16 0 17 6 13 53 -10 98 -14 117 -30 117
-13 0 -15 -10 -12 -51z"/>
<path d="M2260 6233 c0 -73 11 -123 26 -123 16 0 18 46 8 124 -9 64 -34 63
-34 -1z"/>
<path d="M3302 6251 c-6 -17 -7 -31 -3 -31 8 0 22 52 16 58 -1 2 -7 -11 -13
-27z"/>
<path d="M3840 6274 c0 -6 7 -19 15 -30 8 -10 14 -14 14 -9 0 6 -6 19 -14 29
-8 11 -15 15 -15 10z"/>
<path d="M6622 6255 c0 -16 2 -22 5 -12 2 9 2 23 0 30 -3 6 -5 -1 -5 -18z"/>
<path d="M2140 6254 c0 -9 9 -18 20 -21 16 -4 20 -14 20 -53 0 -59 7 -80 27
-80 13 0 15 11 9 70 -6 60 -5 70 8 70 9 0 16 7 16 15 0 11 -12 15 -50 15 -39
0 -50 -3 -50 -16z"/>
<path d="M3451 6254 c0 -11 3 -14 6 -6 3 7 2 16 -1 19 -3 4 -6 -2 -5 -13z"/>
<path d="M2027 6254 c-6 -6 -1 -72 9 -141 6 -39 34 -35 34 6 l1 26 20 -27 c11
-16 30 -28 41 -28 19 0 19 1 -2 36 -17 26 -20 38 -11 47 15 15 14 60 -1 75
-12 12 -80 17 -91 6z m67 -43 c3 -5 -1 -12 -10 -15 -22 -9 -24 -8 -24 9 0 16
25 21 34 6z"/>
<path d="M3421 6244 c0 -11 3 -14 6 -6 3 7 2 16 -1 19 -3 4 -6 -2 -5 -13z"/>
<path d="M3602 6240 c0 -14 2 -19 5 -12 2 6 2 18 0 25 -3 6 -5 1 -5 -13z"/>
<path d="M3651 6244 c0 -11 3 -14 6 -6 3 7 2 16 -1 19 -3 4 -6 -2 -5 -13z"/>
<path d="M3676 6245 c-9 -26 -7 -32 5 -12 6 10 9 21 6 23 -2 3 -7 -2 -11 -11z"/>
<path d="M3702 6240 c0 -14 2 -19 5 -12 2 6 2 18 0 25 -3 6 -5 1 -5 -13z"/>
<path d="M3752 6240 c0 -14 2 -19 5 -12 2 6 2 18 0 25 -3 6 -5 1 -5 -13z"/>
<path d="M3782 6240 c0 -14 2 -19 5 -12 2 6 2 18 0 25 -3 6 -5 1 -5 -13z"/>
<path d="M3892 6240 c0 -14 2 -19 5 -12 2 6 2 18 0 25 -3 6 -5 1 -5 -13z"/>
<path d="M3947 6253 c-4 -3 -7 -13 -7 -22 1 -13 3 -13 11 2 11 19 8 33 -4 20z"/>
<path d="M3992 6240 c0 -14 2 -19 5 -12 2 6 2 18 0 25 -3 6 -5 1 -5 -13z"/>
<path d="M4021 6244 c0 -11 3 -14 6 -6 3 7 2 16 -1 19 -3 4 -6 -2 -5 -13z"/>
<path d="M4040 6238 c0 -19 2 -20 10 -8 13 19 13 30 0 30 -5 0 -10 -10 -10
-22z"/>
<path d="M4122 6240 c0 -14 2 -19 5 -12 2 6 2 18 0 25 -3 6 -5 1 -5 -13z"/>
<path d="M1895 6238 c-3 -7 -16 -48 -29 -90 -23 -76 -23 -78 -4 -78 11 0 22 8
25 20 7 25 70 29 79 5 5 -12 44 -23 44 -12 0 2 -18 41 -40 85 -38 78 -63 101
-75 70z m45 -90 c0 -4 -8 -8 -19 -8 -14 0 -17 6 -13 27 5 25 6 25 18 8 8 -10
14 -22 14 -27z"/>
<path d="M3391 6234 c0 -11 3 -14 6 -6 3 7 2 16 -1 19 -3 4 -6 -2 -5 -13z"/>
<path d="M3477 6243 c-10 -9 -9 -23 1 -23 5 0 9 7 9 15 0 17 -1 18 -10 8z"/>
<path d="M3525 6240 c3 -5 8 -10 11 -10 2 0 4 5 4 10 0 6 -5 10 -11 10 -5 0
-7 -4 -4 -10z"/>
<path d="M3565 6240 c3 -5 8 -10 11 -10 2 0 4 5 4 10 0 6 -5 10 -11 10 -5 0
-7 -4 -4 -10z"/>
<path d="M3625 6239 c-4 -6 -5 -12 -2 -15 2 -3 7 2 10 11 7 17 1 20 -8 4z"/>
<path d="M3731 6234 c0 -11 3 -14 6 -6 3 7 2 16 -1 19 -3 4 -6 -2 -5 -13z"/>
<path d="M3911 6234 c0 -11 3 -14 6 -6 3 7 2 16 -1 19 -3 4 -6 -2 -5 -13z"/>
<path d="M4191 6234 c0 -11 3 -14 6 -6 3 7 2 16 -1 19 -3 4 -6 -2 -5 -13z"/>
<path d="M1767 6226 c-8 -9 -18 -34 -22 -56 -4 -22 -10 -40 -15 -40 -4 0 -15
20 -24 45 -24 61 -53 63 -60 3 -15 -127 -15 -128 5 -128 16 0 19 7 19 40 0 49
11 51 33 5 16 -35 44 -47 51 -22 2 6 8 28 13 47 l10 35 13 -47 c7 -28 18 -48
26 -48 18 0 18 16 -2 98 -20 79 -26 88 -47 68z"/>
<path d="M4090 6230 c0 -5 5 -10 11 -10 5 0 7 5 4 10 -3 6 -8 10 -11 10 -2 0
-4 -4 -4 -10z"/>
<path d="M1447 6203 c-3 -5 -2 -44 1 -88 5 -55 11 -80 20 -79 6 1 28 2 47 3
44 1 50 31 6 31 -42 0 -50 36 -10 45 39 9 38 35 -1 35 -16 0 -30 5 -30 10 0 6
14 13 30 17 48 9 38 33 -14 33 -25 0 -47 -3 -49 -7z"/>
<path d="M1326 6184 c-24 -23 -20 -39 17 -69 17 -15 36 -34 41 -43 7 -12 4
-14 -20 -9 -43 8 -58 -1 -38 -24 33 -37 94 -17 94 30 0 22 -10 37 -37 59 -21
17 -35 34 -31 38 4 4 14 2 21 -5 11 -9 17 -8 25 2 26 31 -42 51 -72 21z"/>
<path d="M1202 6178 c-22 -22 -13 -55 25 -85 39 -32 40 -63 1 -42 -30 16 -50
-7 -24 -27 27 -20 60 -18 80 5 23 26 14 54 -30 87 -38 29 -38 44 1 36 18 -3
25 0 25 11 0 26 -56 37 -78 15z"/>
<path d="M1089 6173 c-16 -4 -17 -50 -3 -140 5 -35 21 -40 72 -27 33 9 28 34
-8 34 -23 0 -30 4 -30 20 0 14 7 20 23 20 29 0 37 7 30 26 -3 8 -18 14 -34 14
-37 0 -38 18 -2 22 17 2 29 10 31 21 3 13 -3 17 -30 16 -18 -1 -40 -3 -49 -6z"/>
<path d="M1001 6098 c4 -72 4 -73 -19 -70 -18 3 -23 -1 -20 -15 4 -22 43 -29
64 -13 25 22 14 170 -13 170 -12 0 -14 -14 -12 -72z"/>
<path d="M3481 6024 c0 -11 3 -14 6 -6 3 7 2 16 -1 19 -3 4 -6 -2 -5 -13z"/>
<path d="M7051 6004 c0 -11 3 -14 6 -6 3 7 2 16 -1 19 -3 4 -6 -2 -5 -13z"/>
<path d="M7091 6004 c0 -11 3 -14 6 -6 3 7 2 16 -1 19 -3 4 -6 -2 -5 -13z"/>
<path d="M3522 5910 c0 -19 2 -27 5 -17 2 9 2 25 0 35 -3 9 -5 1 -5 -18z"/>
<path d="M3861 5894 c0 -11 3 -14 6 -6 3 7 2 16 -1 19 -3 4 -6 -2 -5 -13z"/>
<path d="M4001 5774 c0 -11 3 -14 6 -6 3 7 2 16 -1 19 -3 4 -6 -2 -5 -13z"/>
<path d="M4851 5774 c0 -11 3 -14 6 -6 3 7 2 16 -1 19 -3 4 -6 -2 -5 -13z"/>
<path d="M2984 5719 c-3 -6 -1 -16 5 -22 9 -9 10 -7 5 7 -6 16 -4 18 10 13 10
-4 15 -3 11 3 -8 13 -22 13 -31 -1z"/>
<path d="M2850 5716 c0 -2 7 -7 16 -10 8 -3 12 -2 9 4 -6 10 -25 14 -25 6z"/>
<path d="M2762 5693 c2 -9 9 -18 16 -19 7 -1 8 0 2 3 -16 8 -11 26 6 19 8 -3
12 -2 9 4 -10 17 -37 11 -33 -7z"/>
<path d="M2633 5685 c-3 -9 -3 -19 1 -22 3 -4 6 1 6 11 0 10 5 14 12 10 7 -4
8 -3 4 4 -10 16 -15 15 -23 -3z"/>
<path d="M2687 5693 c-10 -9 -9 -23 1 -23 5 0 9 7 9 15 0 17 -1 18 -10 8z"/>
<path d="M2495 5679 c-4 -6 -4 -13 -1 -16 3 -4 6 -1 6 6 0 8 6 11 16 7 8 -3
12 -2 9 4 -8 13 -22 13 -30 -1z"/>
<path d="M2540 5680 c0 -5 7 -7 15 -4 8 4 15 8 15 10 0 2 -7 4 -15 4 -8 0 -15
-4 -15 -10z"/>
<path d="M2382 5660 c0 -14 2 -19 5 -12 2 6 2 18 0 25 -3 6 -5 1 -5 -13z"/>
<path d="M4942 5655 c0 -16 2 -22 5 -12 2 9 2 23 0 30 -3 6 -5 -1 -5 -18z"/>
<path d="M2170 5649 c0 -5 5 -7 10 -4 6 3 10 8 10 11 0 2 -4 4 -10 4 -5 0 -10
-5 -10 -11z"/>
<path d="M3420 5651 c0 -6 4 -13 10 -16 6 -3 7 1 4 9 -7 18 -14 21 -14 7z"/>
<path d="M2056 5637 c3 -10 9 -15 12 -12 3 3 0 11 -7 18 -10 9 -11 8 -5 -6z"/>
<path d="M2201 5634 c0 -11 3 -14 6 -6 3 7 2 16 -1 19 -3 4 -6 -2 -5 -13z"/>
<path d="M1740 5600 c0 -24 4 -30 23 -30 16 0 18 3 8 9 -7 5 -10 14 -7 20 4 6
1 11 -6 11 -9 0 -9 3 2 10 13 8 12 10 -2 10 -13 0 -18 -8 -18 -30z"/>
<path d="M1928 5623 c6 -2 18 -2 25 0 6 3 1 5 -13 5 -14 0 -19 -2 -12 -5z"/>
<path d="M2901 5614 c0 -11 3 -14 6 -6 3 7 2 16 -1 19 -3 4 -6 -2 -5 -13z"/>
<path d="M1564 5605 c-11 -7 -15 -19 -11 -29 9 -22 36 -31 50 -16 9 9 8 11 -8
8 -12 -2 -21 3 -23 15 -2 12 3 17 17 17 12 0 24 0 29 1 4 0 10 -10 14 -23 5
-21 6 -20 8 7 l2 30 14 -30 14 -30 -2 30 c-3 28 -6 30 -45 31 -23 1 -50 -4
-59 -11z"/>
<path d="M1685 5600 c12 -40 22 -44 33 -11 7 19 7 31 1 31 -5 0 -9 -8 -9 -17
-1 -16 -2 -16 -16 2 -16 19 -16 19 -9 -5z"/>
<path d="M2835 5610 c-4 -6 -4 -14 -1 -17 3 -4 6 -1 6 5 0 17 18 15 23 -3 4
-12 5 -11 3 1 -1 21 -21 29 -31 14z"/>
<path d="M2921 5604 c0 -11 3 -14 6 -6 3 7 2 16 -1 19 -3 4 -6 -2 -5 -13z"/>
<path d="M2951 5604 c0 -11 3 -14 6 -6 3 7 2 16 -1 19 -3 4 -6 -2 -5 -13z"/>
<path d="M2970 5610 c0 -5 5 -10 11 -10 5 0 7 5 4 10 -3 6 -8 10 -11 10 -2 0
-4 -4 -4 -10z"/>
<path d="M3010 5611 c0 -10 19 -25 25 -20 1 2 -3 10 -11 17 -8 7 -14 8 -14 3z"/>
<path d="M1510 5580 c0 -22 5 -30 18 -29 11 0 12 2 4 6 -10 4 -10 8 -1 19 9
11 8 14 -2 14 -11 0 -11 2 1 10 13 8 12 10 -2 10 -13 0 -18 -8 -18 -30z"/>
<path d="M2745 5601 c-3 -6 0 -8 9 -5 8 3 16 -1 19 -10 4 -14 5 -14 3 0 -1 20
-21 30 -31 15z"/>
<path d="M2811 5594 c0 -11 3 -14 6 -6 3 7 2 16 -1 19 -3 4 -6 -2 -5 -13z"/>
<path d="M1351 5587 c-25 -31 13 -66 46 -42 14 11 16 18 7 32 -14 23 -38 28
-53 10z m39 -23 c0 -8 -7 -14 -15 -14 -15 0 -21 21 -9 33 10 9 24 -2 24 -19z"/>
<path d="M1420 5570 c0 -19 5 -30 14 -30 20 0 26 12 19 38 -8 33 -33 27 -33
-8z"/>
<path d="M1477 5575 c-6 -35 -1 -43 15 -27 8 8 8 18 1 34 -10 22 -10 22 -16
-7z"/>
<path d="M1237 5583 c-14 -13 -7 -63 8 -63 8 0 15 5 15 10 0 6 -6 10 -12 10
-10 0 -9 3 1 9 11 7 11 9 0 14 -10 4 -10 6 -1 6 6 1 12 6 12 11 0 11 -13 13
-23 3z"/>
<path d="M1270 5561 c0 -23 4 -29 19 -28 25 2 24 50 -2 55 -13 3 -17 -3 -17
-27z"/>
<path d="M2525 5580 c-3 -6 1 -7 9 -4 18 7 21 14 7 14 -6 0 -13 -4 -16 -10z"/>
<path d="M1135 5570 c-10 -15 3 -47 19 -47 9 0 14 10 13 25 -2 27 -21 40 -32
22z"/>
<path d="M1180 5566 c0 -27 12 -46 29 -46 14 0 14 2 1 10 -13 9 -13 11 0 20
11 7 11 10 2 10 -7 0 -10 5 -7 10 3 6 -1 10 -9 10 -9 0 -16 -6 -16 -14z"/>
<path d="M2405 5570 c-3 -6 1 -7 9 -4 18 7 21 14 7 14 -6 0 -13 -4 -16 -10z"/>
<path d="M1012 5558 c-27 -27 2 -68 35 -49 17 10 16 10 -4 11 -12 0 -25 5 -29
11 -8 13 16 30 30 22 5 -3 6 -1 2 5 -9 15 -19 15 -34 0z"/>
<path d="M1080 5556 c0 -8 -2 -20 -5 -28 -4 -9 3 -13 20 -13 27 0 30 7 15 36
-12 22 -30 25 -30 5z"/>
<path d="M2535 5560 c-16 -7 -17 -9 -3 -9 9 -1 20 4 23 9 7 11 7 11 -20 0z"/>
<path d="M2092 5530 c0 -14 2 -19 5 -12 2 6 2 18 0 25 -3 6 -5 1 -5 -13z"/>
<path d="M2040 5524 c0 -8 5 -12 10 -9 6 3 10 10 10 16 0 5 -4 9 -10 9 -5 0
-10 -7 -10 -16z"/>
<path d="M3023 5515 c-3 -9 -3 -18 -1 -21 3 -3 8 4 11 16 6 23 -1 27 -10 5z"/>
<path d="M2830 5495 c0 -8 2 -15 4 -15 2 0 6 7 10 15 3 8 1 15 -4 15 -6 0 -10
-7 -10 -15z"/>
<path d="M2705 5490 c-8 -13 3 -30 18 -29 9 0 9 2 0 6 -7 2 -13 9 -13 14 0 6
5 7 10 4 6 -3 10 -1 10 4 0 14 -17 14 -25 1z"/>
<path d="M2501 5468 c-1 -21 4 -28 17 -28 11 0 13 3 6 8 -7 4 -14 16 -17 27
-4 15 -5 14 -6 -7z"/>
<path d="M6291 5480 c0 -8 4 -24 9 -35 5 -13 9 -14 9 -5 0 8 -4 24 -9 35 -5
13 -9 14 -9 5z"/>
<path d="M6340 5477 c0 -8 -2 -22 -5 -30 -4 -8 0 -14 9 -14 12 0 14 7 9 26 -7
32 -13 40 -13 18z"/>
<path d="M6416 5475 c-3 -9 -6 -24 -5 -33 0 -9 5 -4 10 12 9 32 6 48 -5 21z"/>
<path d="M2546 5463 c-6 -14 -5 -15 5 -6 7 7 10 15 7 18 -3 3 -9 -2 -12 -12z"/>
<path d="M2622 5468 c2 -6 10 -13 16 -14 7 -1 8 0 2 3 -5 2 -8 9 -4 14 3 5 0
9 -6 9 -7 0 -10 -5 -8 -12z"/>
<path d="M2365 5459 c-4 -6 -5 -12 -2 -15 2 -3 7 2 10 11 7 17 1 20 -8 4z"/>
<path d="M6437 5451 c-4 -17 -3 -21 5 -13 5 5 8 16 6 23 -3 8 -7 3 -11 -10z"/>
<path d="M2268 5453 c7 -3 16 -2 19 1 4 3 -2 6 -13 5 -11 0 -14 -3 -6 -6z"/>
<path d="M6381 5444 c0 -11 3 -14 6 -6 3 7 2 16 -1 19 -3 4 -6 -2 -5 -13z"/>
<path d="M2105 5439 c-4 -6 -4 -13 -1 -16 3 -4 6 -1 6 6 0 8 6 11 16 7 8 -3
12 -2 9 4 -8 13 -22 13 -30 -1z"/>
<path d="M2005 5429 c-4 -6 -4 -13 -1 -16 3 -4 6 -1 6 6 0 8 7 11 15 7 8 -3
15 -1 15 4 0 13 -27 13 -35 -1z"/>
<path d="M2070 5410 c-9 -6 -10 -10 -3 -10 6 0 15 5 18 10 8 12 4 12 -15 0z"/>
<path d="M3004 5409 c-10 -17 13 -36 27 -22 12 12 4 33 -11 33 -5 0 -12 -5
-16 -11z m26 -9 c0 -5 -4 -10 -10 -10 -5 0 -10 5 -10 10 0 6 5 10 10 10 6 0
10 -4 10 -10z"/>
<path d="M2801 5384 c0 -11 3 -14 6 -6 3 7 2 16 -1 19 -3 4 -6 -2 -5 -13z"/>
<path d="M2680 5376 c0 -8 4 -17 8 -20 4 -2 8 4 8 15 0 10 -4 19 -8 19 -4 0
-8 -6 -8 -14z"/>
<path d="M2925 5380 c-3 -5 -1 -10 4 -10 6 0 11 5 11 10 0 6 -2 10 -4 10 -3 0
-8 -4 -11 -10z"/>
<path d="M2218 5343 c7 -3 16 -2 19 1 4 3 -2 6 -13 5 -11 0 -14 -3 -6 -6z"/>
<path d="M2437 5339 c7 -7 15 -10 18 -7 3 3 -2 9 -12 12 -14 6 -15 5 -6 -5z"/>
<path d="M2032 5320 c0 -14 2 -19 5 -12 2 6 2 18 0 25 -3 6 -5 1 -5 -13z"/>
<path d="M2146 5325 c4 -8 8 -15 10 -15 2 0 4 7 4 15 0 8 -4 15 -10 15 -5 0
-7 -7 -4 -15z"/>
<path d="M2004 5309 c0 -10 4 -19 8 -19 4 0 8 6 8 14 0 8 -4 17 -8 20 -4 2 -8
-4 -8 -15z"/>
<path d="M2051 5314 c0 -11 3 -14 6 -6 3 7 2 16 -1 19 -3 4 -6 -2 -5 -13z"/>
<path d="M6287 5243 c-12 -11 -8 -23 8 -23 8 0 15 7 15 15 0 16 -12 20 -23 8z"/>
<path d="M6392 5230 c0 -14 2 -19 5 -12 2 6 2 18 0 25 -3 6 -5 1 -5 -13z"/>
<path d="M6602 5225 c-11 -12 -10 -15 3 -15 8 0 15 7 15 15 0 18 -2 18 -18 0z"/>
<path d="M3340 5140 c-1 -3 -4 -18 -6 -34 -2 -20 0 -26 7 -19 6 6 9 21 6 34
-2 13 -5 22 -7 19z"/>
<path d="M3476 5114 c-4 -14 -5 -29 -1 -32 3 -3 5 1 5 9 0 12 2 11 10 -1 8
-11 9 -7 4 15 -9 40 -10 41 -18 9z"/>
<path d="M3556 5114 c-4 -14 -5 -28 -3 -31 3 -2 8 8 11 23 4 14 5 28 3 31 -3
2 -8 -8 -11 -23z"/>
<path d="M3592 5111 c-6 -17 -7 -31 -3 -31 8 0 22 52 16 58 -1 2 -7 -11 -13
-27z"/>
<path d="M6286 5123 c-11 -11 -6 -23 9 -23 8 0 15 4 15 9 0 13 -16 22 -24 14z"/>
<path d="M7192 5110 c0 -14 2 -19 5 -12 2 6 2 18 0 25 -3 6 -5 1 -5 -13z"/>
<path d="M3005 5110 c-3 -5 -15 -10 -26 -10 -10 0 -19 -6 -19 -12 0 -9 -3 -9
-9 1 -5 8 -16 11 -24 8 -8 -3 -20 0 -26 6 -13 13 -15 -1 -5 -28 5 -13 8 -14
15 -3 7 10 9 10 9 1 0 -18 26 -16 45 4 14 14 18 14 26 2 7 -11 9 -10 10 6 l0
20 9 -20 c8 -18 9 -17 9 8 1 28 -4 34 -14 17z"/>
<path d="M3437 5113 c-4 -3 -7 -13 -7 -22 1 -13 3 -13 11 2 11 19 8 33 -4 20z"/>
<path d="M3623 5105 c-3 -9 -3 -18 -1 -21 3 -3 8 4 11 16 6 23 -1 27 -10 5z"/>
<path d="M3650 5111 c0 -3 4 -12 9 -19 6 -11 9 -9 13 5 3 12 0 20 -8 20 -8 0
-14 -3 -14 -6z"/>
<path d="M3812 5100 c0 -14 2 -19 5 -12 2 6 2 18 0 25 -3 6 -5 1 -5 -13z"/>
<path d="M7091 5104 c0 -11 3 -14 6 -6 3 7 2 16 -1 19 -3 4 -6 -2 -5 -13z"/>
<path d="M3300 5099 c0 -5 5 -7 10 -4 6 3 10 8 10 11 0 2 -4 4 -10 4 -5 0 -10
-5 -10 -11z"/>
<path d="M3381 5094 c0 -11 3 -14 6 -6 3 7 2 16 -1 19 -3 4 -6 -2 -5 -13z"/>
<path d="M1560 5071 c0 -23 5 -31 18 -31 25 0 24 53 0 58 -14 3 -18 -3 -18
-27z"/>
<path d="M1610 5090 c1 -3 7 -16 14 -29 l13 -24 5 29 c3 24 0 30 -14 30 -10 0
-18 -3 -18 -6z"/>
<path d="M2737 5079 c-10 -36 -8 -43 6 -30 8 6 17 8 20 4 13 -12 7 13 -6 32
-13 17 -14 17 -20 -6z"/>
<path d="M2867 5094 c-6 -10 9 -42 16 -34 3 3 1 14 -3 24 -3 11 -9 15 -13 10z"/>
<path d="M1456 5063 c9 -38 11 -39 16 -3 3 21 0 30 -9 30 -10 0 -11 -8 -7 -27z"/>
<path d="M1494 5076 c-10 -26 4 -48 28 -44 17 2 23 10 23 28 0 18 -6 26 -23
28 -13 2 -25 -3 -28 -12z m40 -4 c8 -13 -11 -35 -23 -28 -16 10 -14 36 3 36 8
0 17 -4 20 -8z"/>
<path d="M2789 5089 c0 -2 -2 -12 -4 -21 -2 -12 3 -18 15 -18 30 0 50 11 50
29 0 14 -2 14 -10 1 -6 -10 -10 -11 -10 -2 0 6 -5 12 -11 12 -6 0 -8 -8 -5
-17 5 -15 4 -15 -9 1 -8 11 -15 18 -16 15z"/>
<path d="M1356 5063 c-6 -15 -8 -15 -16 -3 -14 23 -23 4 -12 -27 6 -17 11 -21
11 -10 1 20 17 23 24 5 3 -7 6 2 6 20 1 36 -4 41 -13 15z"/>
<path d="M1380 5052 c0 -18 5 -32 10 -32 6 0 8 11 4 28 -10 39 -14 40 -14 4z"/>
<path d="M1400 5073 c0 -3 8 -15 18 -26 9 -11 11 -17 5 -13 -7 4 -13 2 -13 -3
0 -6 7 -11 15 -11 17 0 20 25 5 35 -6 4 -8 11 -5 16 4 5 -1 9 -9 9 -9 0 -16
-3 -16 -7z"/>
<path d="M2525 5071 c-3 -5 -1 -12 5 -16 6 -4 8 -10 5 -15 -3 -4 11 -8 30 -8
28 0 35 4 35 19 0 20 -24 26 -35 9 -4 -6 -11 -8 -16 -4 -5 3 -7 10 -4 15 4 5
2 9 -4 9 -5 0 -12 -4 -16 -9z"/>
<path d="M2611 5055 c0 -16 3 -25 5 -19 3 7 13 10 23 7 10 -3 21 2 24 10 7 18
-19 31 -29 15 -4 -7 -9 -6 -15 3 -6 10 -8 4 -8 -16z"/>
<path d="M2680 5060 c0 -11 4 -20 9 -20 6 0 9 9 8 20 -1 11 -5 20 -9 20 -4 0
-8 -9 -8 -20z"/>
<path d="M1251 5036 c0 -17 3 -25 6 -18 4 10 8 10 21 0 15 -11 15 -11 4 3 -7
9 -10 23 -7 31 4 9 0 15 -10 15 -10 0 -15 -10 -14 -31z"/>
<path d="M2400 5056 c0 -9 5 -16 11 -16 5 0 8 -4 5 -8 -2 -4 11 -9 30 -10 27
-2 34 1 35 15 0 16 1 16 9 -2 8 -18 9 -18 9 6 1 31 -28 36 -30 5 -1 -18 -2
-18 -6 -3 -3 10 -12 17 -21 15 -9 -1 -23 1 -29 5 -9 5 -13 3 -13 -7z m50 -16
c0 -5 -5 -10 -11 -10 -5 0 -7 5 -4 10 3 6 8 10 11 10 2 0 4 -4 4 -10z"/>
<path d="M1101 5046 c-1 -15 -4 -16 -16 -6 -12 10 -15 10 -15 0 0 -10 -3 -10
-15 0 -18 15 -19 11 -4 -27 8 -22 12 -24 20 -13 8 13 10 13 18 0 9 -12 11 -12
16 2 4 9 5 27 2 40 -3 17 -5 18 -6 4z"/>
<path d="M1131 5046 c-16 -20 -3 -46 24 -46 13 0 26 7 29 16 7 19 -10 44 -29
44 -7 0 -18 -6 -24 -14z m39 -16 c0 -11 -7 -20 -15 -20 -8 0 -15 9 -15 20 0
11 7 20 15 20 8 0 15 -9 15 -20z"/>
<path d="M1201 5028 c0 -18 3 -27 6 -20 2 6 9 10 14 6 5 -3 9 6 9 20 0 16 -6
26 -15 26 -10 0 -15 -10 -14 -32z"/>
<path d="M2317 5037 c3 -13 10 -24 17 -24 18 0 12 41 -6 45 -11 2 -14 -3 -11
-21z"/>
<path d="M2253 5042 c-30 -4 -32 -42 -3 -42 12 0 20 7 20 18 0 14 2 15 10 2 5
-8 10 -10 10 -5 0 19 -15 30 -37 27z m2 -22 c3 -5 1 -10 -4 -10 -6 0 -11 5
-11 10 0 6 2 10 4 10 3 0 8 -4 11 -10z"/>
<path d="M2362 5033 c5 -25 28 -28 28 -4 0 12 -6 21 -16 21 -9 0 -14 -7 -12
-17z"/>
<path d="M2194 5025 c-4 -9 -4 -19 0 -22 3 -4 6 2 7 13 0 18 1 18 9 -1 7 -16
9 -17 9 -3 1 23 -18 33 -25 13z"/>
<path d="M1975 5021 c-3 -5 -1 -12 5 -16 6 -4 8 -10 5 -15 -2 -4 10 -7 28 -6
21 1 33 7 35 19 4 18 -22 24 -33 7 -4 -6 -11 -8 -16 -4 -5 3 -7 10 -4 15 4 5
2 9 -4 9 -5 0 -12 -4 -16 -9z"/>
<path d="M2067 5024 c-14 -15 -6 -34 14 -34 14 0 19 5 17 17 -3 18 -20 27 -31
17z"/>
<path d="M2110 5010 c0 -11 4 -20 9 -20 6 0 9 9 8 20 -1 11 -5 20 -9 20 -4 0
-8 -9 -8 -20z"/>
<path d="M2142 5013 c4 -21 33 -25 33 -3 0 8 -8 16 -18 18 -14 3 -18 -1 -15
-15z m28 3 c0 -3 -4 -8 -10 -11 -5 -3 -10 -1 -10 4 0 6 5 11 10 11 6 0 10 -2
10 -4z"/>
<path d="M6432 4995 c0 -16 2 -22 5 -12 2 9 2 23 0 30 -3 6 -5 -1 -5 -18z"/>
<path d="M3002 4990 c0 -14 2 -19 5 -12 2 6 2 18 0 25 -3 6 -5 1 -5 -13z"/>
<path d="M6280 4985 c0 -8 7 -15 15 -15 8 0 15 7 15 15 0 8 -7 15 -15 15 -8 0
-15 -7 -15 -15z"/>
<path d="M6391 4984 c0 -11 3 -14 6 -6 3 7 2 16 -1 19 -3 4 -6 -2 -5 -13z"/>
<path d="M7002 4980 c0 -14 2 -19 5 -12 2 6 2 18 0 25 -3 6 -5 1 -5 -13z"/>
<path d="M2885 4980 c3 -5 8 -10 11 -10 2 0 4 5 4 10 0 6 -5 10 -11 10 -5 0
-7 -4 -4 -10z"/>
<path d="M2750 4970 c0 -5 7 -7 15 -4 8 4 15 8 15 10 0 2 -7 4 -15 4 -8 0 -15
-4 -15 -10z"/>
<path d="M2650 4965 c0 -5 5 -17 10 -25 5 -8 10 -10 10 -5 0 6 -5 17 -10 25
-5 8 -10 11 -10 5z"/>
<path d="M2731 4954 c0 -11 3 -14 6 -6 3 7 2 16 -1 19 -3 4 -6 -2 -5 -13z"/>
<path d="M2504 4949 c-3 -6 -1 -16 5 -22 9 -9 10 -7 5 7 -6 16 -4 18 10 13 10
-4 15 -3 11 3 -8 13 -22 13 -31 -1z"/>
<path d="M2878 4953 c7 -3 16 -2 19 1 4 3 -2 6 -13 5 -11 0 -14 -3 -6 -6z"/>
<path d="M2150 4931 c10 -7 11 -11 3 -11 -17 0 -17 -17 0 -23 9 -3 13 2 12 16
-1 11 -8 23 -16 25 -11 3 -11 1 1 -7z"/>
<path d="M2285 4929 c-4 -6 -4 -13 -1 -16 3 -4 6 -1 6 5 0 7 5 12 11 12 6 0 8
-7 4 -17 -5 -14 -3 -15 6 -6 12 12 5 33 -11 33 -5 0 -12 -5 -15 -11z"/>
<path d="M2185 4920 c-8 -13 3 -30 18 -29 9 0 9 2 0 6 -7 2 -13 9 -13 15 0 6
7 7 16 4 8 -3 12 -2 9 4 -8 13 -22 13 -30 0z"/>
<path d="M2075 4909 c-10 -15 3 -25 16 -12 7 7 7 13 1 17 -6 3 -14 1 -17 -5z"/>
<path d="M3302 4895 c0 -16 2 -22 5 -12 2 9 2 23 0 30 -3 6 -5 -1 -5 -18z"/>
<path d="M3792 4900 c0 -14 2 -19 5 -12 2 6 2 18 0 25 -3 6 -5 1 -5 -13z"/>
<path d="M4192 4895 c0 -16 2 -22 5 -12 2 9 2 23 0 30 -3 6 -5 -1 -5 -18z"/>
<path d="M4420 4911 c0 -6 4 -13 10 -16 6 -3 7 1 4 9 -7 18 -14 21 -14 7z"/>
<path d="M4562 4895 c0 -16 2 -22 5 -12 2 9 2 23 0 30 -3 6 -5 -1 -5 -18z"/>
<path d="M5052 4890 c0 -19 2 -27 5 -17 2 9 2 25 0 35 -3 9 -5 1 -5 -18z"/>
<path d="M5292 4895 c0 -16 2 -22 5 -12 2 9 2 23 0 30 -3 6 -5 -1 -5 -18z"/>
<path d="M5362 4895 c0 -16 2 -22 5 -12 2 9 2 23 0 30 -3 6 -5 -1 -5 -18z"/>
<path d="M3432 4890 c0 -14 2 -19 5 -12 2 6 2 18 0 25 -3 6 -5 1 -5 -13z"/>
<path d="M3831 4894 c0 -11 3 -14 6 -6 3 7 2 16 -1 19 -3 4 -6 -2 -5 -13z"/>
<path d="M4382 4890 c0 -14 2 -19 5 -12 2 6 2 18 0 25 -3 6 -5 1 -5 -13z"/>
<path d="M4697 4890 c3 -11 9 -22 13 -25 5 -3 6 4 3 15 -3 11 -9 22 -13 25 -5
3 -6 -4 -3 -15z"/>
<path d="M5511 4894 c0 -11 3 -14 6 -6 3 7 2 16 -1 19 -3 4 -6 -2 -5 -13z"/>
<path d="M3351 4884 c0 -11 3 -14 6 -6 3 7 2 16 -1 19 -3 4 -6 -2 -5 -13z"/>
<path d="M3621 4884 c0 -11 3 -14 6 -6 3 7 2 16 -1 19 -3 4 -6 -2 -5 -13z"/>
<path d="M3672 4880 c0 -14 2 -19 5 -12 2 6 2 18 0 25 -3 6 -5 1 -5 -13z"/>
<path d="M3712 4880 c0 -14 2 -19 5 -12 2 6 2 18 0 25 -3 6 -5 1 -5 -13z"/>
<path d="M3961 4884 c0 -11 3 -14 6 -6 3 7 2 16 -1 19 -3 4 -6 -2 -5 -13z"/>
<path d="M4761 4884 c0 -11 3 -14 6 -6 3 7 2 16 -1 19 -3 4 -6 -2 -5 -13z"/>
<path d="M4852 4880 c0 -14 2 -19 5 -12 2 6 2 18 0 25 -3 6 -5 1 -5 -13z"/>
<path d="M5101 4884 c0 -11 3 -14 6 -6 3 7 2 16 -1 19 -3 4 -6 -2 -5 -13z"/>
<path d="M5571 4884 c0 -11 3 -14 6 -6 3 7 2 16 -1 19 -3 4 -6 -2 -5 -13z"/>
<path d="M5411 4874 c0 -11 3 -14 6 -6 3 7 2 16 -1 19 -3 4 -6 -2 -5 -13z"/>
<path d="M4040 4870 c0 -6 7 -10 15 -10 8 0 15 2 15 4 0 2 -7 6 -15 10 -8 3
-15 1 -15 -4z"/>
<path d="M6286 4873 c-11 -11 -6 -23 9 -23 8 0 15 4 15 9 0 13 -16 22 -24 14z"/>
<path d="M7191 4864 c0 -11 3 -14 6 -6 3 7 2 16 -1 19 -3 4 -6 -2 -5 -13z"/>
<path d="M6621 4854 c0 -11 3 -14 6 -6 3 7 2 16 -1 19 -3 4 -6 -2 -5 -13z"/>
<path d="M7431 4854 c0 -11 3 -14 6 -6 3 7 2 16 -1 19 -3 4 -6 -2 -5 -13z"/>
<path d="M2583 4845 c-3 -9 -3 -19 1 -22 3 -4 6 1 6 11 0 10 5 14 12 10 7 -4
8 -3 4 4 -10 16 -15 15 -23 -3z"/>
<path d="M2621 4844 c0 -11 3 -14 6 -6 3 7 2 16 -1 19 -3 4 -6 -2 -5 -13z"/>
<path d="M2651 4844 c0 -11 3 -14 6 -6 3 7 2 16 -1 19 -3 4 -6 -2 -5 -13z"/>
<path d="M2492 4830 c0 -14 2 -19 5 -12 2 6 2 18 0 25 -3 6 -5 1 -5 -13z"/>
<path d="M2365 4830 c-3 -6 1 -7 9 -4 18 7 21 14 7 14 -6 0 -13 -4 -16 -10z"/>
<path d="M3008 4783 c7 -3 16 -2 19 1 4 3 -2 6 -13 5 -11 0 -14 -3 -6 -6z"/>
<path d="M2916 4766 c3 -8 -2 -16 -13 -19 -14 -4 -14 -5 5 -6 22 -1 31 22 12
34 -5 3 -7 0 -4 -9z"/>
<path d="M3562 4760 c0 -14 2 -19 5 -12 2 6 2 18 0 25 -3 6 -5 1 -5 -13z"/>
<path d="M3290 4766 c0 -2 8 -10 18 -17 15 -13 16 -12 3 4 -13 16 -21 21 -21
13z"/>
<path d="M3481 4754 c0 -11 3 -14 6 -6 3 7 2 16 -1 19 -3 4 -6 -2 -5 -13z"/>
<path d="M3616 4755 c-3 -8 -1 -15 4 -15 6 0 10 7 10 15 0 8 -2 15 -4 15 -2 0
-6 -7 -10 -15z"/>
<path d="M2683 4742 c0 -12 5 -22 9 -22 11 0 10 12 -2 30 -7 12 -9 10 -7 -8z"/>
<path d="M2771 4744 c0 -11 3 -14 6 -6 3 7 2 16 -1 19 -3 4 -6 -2 -5 -13z"/>
<path d="M3018 4753 c7 -3 16 -2 19 1 4 3 -2 6 -13 5 -11 0 -14 -3 -6 -6z"/>
<path d="M2471 4734 c0 -11 3 -14 6 -6 3 7 2 16 -1 19 -3 4 -6 -2 -5 -13z"/>
<path d="M2550 4746 c0 -2 7 -7 16 -10 8 -3 12 -2 9 4 -6 10 -25 14 -25 6z"/>
<path d="M2611 4734 c0 -11 3 -14 6 -6 3 7 2 16 -1 19 -3 4 -6 -2 -5 -13z"/>
<path d="M2440 4729 c0 -5 5 -7 10 -4 6 3 10 8 10 11 0 2 -4 4 -10 4 -5 0 -10
-5 -10 -11z"/>
<path d="M8030 4731 c-65 -8 -111 -31 -138 -68 -21 -29 -48 -110 -41 -118 3
-2 20 -6 38 -7 l33 -2 -5 -47 c-3 -26 -20 -84 -38 -129 -28 -70 -30 -83 -18
-95 19 -19 493 -25 511 -7 9 9 8 25 -5 65 -28 89 -35 120 -42 177 -12 97 -61
182 -125 215 -34 17 -104 24 -170 16z"/>
<path d="M2165 4709 c-4 -5 -4 -13 -1 -16 3 -4 6 0 6 8 0 11 2 11 10 -1 6 -9
10 -10 10 -3 0 17 -17 25 -25 12z"/>
<path d="M2213 4701 c0 -11 5 -18 9 -15 4 3 5 11 1 19 -7 21 -12 19 -10 -4z"/>
<path d="M2090 4695 c0 -8 5 -15 10 -15 6 0 10 7 10 15 0 8 -4 15 -10 15 -5 0
-10 -7 -10 -15z"/>
<path d="M2243 4695 c0 -8 4 -12 9 -9 5 3 6 10 3 15 -9 13 -12 11 -12 -6z"/>
<path d="M2820 4666 c0 -2 7 -6 15 -10 8 -3 15 -1 15 4 0 6 -7 10 -15 10 -8 0
-15 -2 -15 -4z"/>
<path d="M2863 4652 c0 -12 5 -22 9 -22 11 0 10 12 -2 30 -7 12 -9 10 -7 -8z"/>
<path d="M3861 4654 c0 -11 3 -14 6 -6 3 7 2 16 -1 19 -3 4 -6 -2 -5 -13z"/>
<path d="M2723 4645 c-3 -9 -3 -19 1 -22 3 -4 6 1 6 11 0 10 5 14 12 10 7 -4
8 -3 4 4 -10 16 -15 15 -23 -3z"/>
<path d="M2765 4650 c-8 -13 3 -30 18 -29 9 0 9 2 0 5 -7 3 -9 12 -6 20 6 16
-3 19 -12 4z"/>
<path d="M2571 4624 c0 -11 3 -14 6 -6 3 7 2 16 -1 19 -3 4 -6 -2 -5 -13z"/>
<path d="M2390 4619 c0 -5 5 -7 10 -4 6 3 10 8 10 11 0 2 -4 4 -10 4 -5 0 -10
-5 -10 -11z"/>
<path d="M6287 4623 c-12 -11 -8 -23 8 -23 8 0 15 7 15 15 0 16 -12 20 -23 8z"/>
<path d="M2275 4610 c-8 -13 3 -30 18 -30 7 0 6 4 -3 10 -13 9 -13 11 0 20 9
6 10 10 3 10 -6 0 -15 -4 -18 -10z"/>
<path d="M2371 4604 c0 -11 3 -14 6 -6 3 7 2 16 -1 19 -3 4 -6 -2 -5 -13z"/>
<path d="M6721 4604 c0 -11 3 -14 6 -6 3 7 2 16 -1 19 -3 4 -6 -2 -5 -13z"/>
<path d="M6771 4604 c0 -11 3 -14 6 -6 3 7 2 16 -1 19 -3 4 -6 -2 -5 -13z"/>
<path d="M7281 4604 c0 -11 3 -14 6 -6 3 7 2 16 -1 19 -3 4 -6 -2 -5 -13z"/>
<path d="M2178 4603 c7 -3 16 -2 19 1 4 3 -2 6 -13 5 -11 0 -14 -3 -6 -6z"/>
<path d="M2451 4597 c-8 -10 -7 -14 2 -14 8 0 14 6 14 14 0 7 -1 13 -2 13 -2
0 -8 -6 -14 -13z"/>
<path d="M2178 4573 c7 -3 16 -2 19 1 4 3 -2 6 -13 5 -11 0 -14 -3 -6 -6z"/>
<path d="M2668 4528 c2 -10 6 -18 7 -18 1 0 5 8 7 18 3 11 0 19 -7 19 -7 0
-10 -8 -7 -19z"/>
<path d="M2420 4529 c0 -5 5 -7 10 -4 6 3 10 8 10 11 0 2 -4 4 -10 4 -5 0 -10
-5 -10 -11z"/>
<path d="M2483 4511 c0 -11 5 -18 9 -15 4 3 5 11 1 19 -7 21 -12 19 -10 -4z"/>
<path d="M2600 4521 c0 -10 19 -25 25 -20 1 2 -3 10 -11 17 -8 7 -14 8 -14 3z"/>
<path d="M2838 4523 c7 -3 16 -2 19 1 4 3 -2 6 -13 5 -11 0 -14 -3 -6 -6z"/>
<path d="M2201 4494 c0 -11 3 -14 6 -6 3 7 2 16 -1 19 -3 4 -6 -2 -5 -13z"/>
<path d="M6286 4503 c-11 -11 -6 -23 9 -23 8 0 15 4 15 9 0 13 -16 22 -24 14z"/>
<path d="M2110 4486 c0 -9 5 -16 10 -16 6 0 10 4 10 9 0 6 -4 13 -10 16 -5 3
-10 -1 -10 -9z"/>
<path d="M2250 4491 c0 -6 4 -13 10 -16 6 -3 7 1 4 9 -7 18 -14 21 -14 7z"/>
<path d="M2390 4490 c-9 -6 -10 -10 -3 -10 6 0 15 5 18 10 8 12 4 12 -15 0z"/>
<path d="M9240 4450 c-137 -13 -179 -49 -160 -136 5 -21 10 -73 12 -114 2 -51
7 -74 15 -73 7 2 10 -6 8 -20 -7 -35 35 -80 73 -80 36 0 40 -12 21 -66 -10
-28 -23 -36 -56 -32 -8 1 -13 -11 -13 -32 0 -94 139 -115 228 -34 22 21 31 67
12 67 -5 0 -9 -3 -9 -7 1 -5 0 -12 -1 -18 -3 -17 -32 88 -35 130 -2 22 -1 30
2 17 4 -22 6 -22 28 -8 21 14 24 14 36 0 16 -20 63 -44 84 -44 56 0 115 61
115 119 0 35 -52 101 -80 101 -41 0 -50 11 -50 62 0 59 -19 98 -62 132 -45 33
-91 43 -168 36z m120 -305 c-7 -8 -20 -15 -28 -15 -13 0 -12 3 4 15 25 19 40
19 24 0z m-90 -299 c0 -2 -7 -6 -15 -10 -8 -3 -15 -1 -15 4 0 6 7 10 15 10 8
0 15 -2 15 -4z"/>
<path d="M4332 4375 c0 -16 2 -22 5 -12 2 9 2 23 0 30 -3 6 -5 -1 -5 -18z"/>
<path d="M3300 4365 c0 -9 5 -15 11 -13 6 2 11 8 11 13 0 5 -5 11 -11 13 -6 2
-11 -4 -11 -13z"/>
<path d="M4382 4360 c0 -14 2 -19 5 -12 2 6 2 18 0 25 -3 6 -5 1 -5 -13z"/>
<path d="M6287 4373 c-12 -11 -8 -23 8 -23 8 0 15 7 15 15 0 16 -12 20 -23 8z"/>
<path d="M5041 4354 c0 -11 3 -14 6 -6 3 7 2 16 -1 19 -3 4 -6 -2 -5 -13z"/>
<path d="M6721 4354 c0 -11 3 -14 6 -6 3 7 2 16 -1 19 -3 4 -6 -2 -5 -13z"/>
<path d="M2746 4281 c-4 -5 3 -7 14 -4 23 6 26 13 6 13 -8 0 -17 -4 -20 -9z"/>
<path d="M2520 4244 c0 -23 2 -24 15 -10 8 8 15 17 15 19 0 3 -7 7 -15 11 -11
4 -15 -2 -15 -20z"/>
<path d="M2558 4250 c-7 -24 -3 -38 8 -28 3 4 4 17 2 30 l-3 23 -7 -25z"/>
<path d="M2390 4245 c-16 -20 0 -39 26 -32 16 4 15 5 -3 6 -27 1 -30 16 -5 30
9 6 12 11 6 11 -6 0 -17 -7 -24 -15z"/>
<path d="M2582 4243 c2 -9 9 -18 17 -21 9 -3 11 0 6 8 -6 10 -2 12 13 8 14 -4
22 -2 22 6 0 8 -13 13 -31 14 -23 0 -29 -3 -27 -15z"/>
<path d="M6287 4253 c-12 -11 -8 -23 8 -23 8 0 15 7 15 15 0 16 -12 20 -23 8z"/>
<path d="M2447 4243 c-14 -13 -6 -33 13 -33 13 0 20 7 20 20 0 19 -20 27 -33
13z m18 -13 c3 -5 1 -10 -4 -10 -6 0 -11 5 -11 10 0 6 2 10 4 10 3 0 8 -4 11
-10z"/>
<path d="M2490 4230 c0 -11 5 -20 10 -20 6 0 10 9 10 20 0 11 -4 20 -10 20 -5
0 -10 -9 -10 -20z"/>
<path d="M3421 4234 c0 -11 3 -14 6 -6 3 7 2 16 -1 19 -3 4 -6 -2 -5 -13z"/>
<path d="M3941 4234 c0 -11 3 -14 6 -6 3 7 2 16 -1 19 -3 4 -6 -2 -5 -13z"/>
<path d="M2211 4211 c0 -23 1 -24 8 -6 l8 20 5 -20 c5 -16 6 -15 7 6 1 17 -4
26 -14 26 -10 0 -15 -10 -14 -26z"/>
<path d="M2320 4220 c0 -11 6 -20 13 -20 7 0 13 9 14 20 1 11 -4 20 -13 20 -8
0 -14 -9 -14 -20z"/>
<path d="M2050 4203 c0 -26 1 -26 14 -8 14 20 12 35 -5 35 -5 0 -9 -12 -9 -27z"/>
<path d="M2123 4223 c-25 -3 -33 -9 -33 -24 0 -14 7 -19 25 -19 16 0 25 6 25
15 0 18 16 20 23 3 3 -7 6 -3 6 10 1 12 -2 21 -6 20 -5 0 -23 -3 -40 -5z"/>
<path d="M2251 4208 c0 -22 1 -22 9 -3 6 13 9 15 9 5 1 -13 2 -13 11 0 9 13
11 13 20 0 8 -13 10 -12 10 3 0 12 -8 17 -30 17 -25 0 -30 -4 -29 -22z"/>
<path d="M2855 4222 c-29 -3 -31 -6 -30 -41 0 -22 3 -37 6 -35 3 2 14 -15 24
-37 20 -43 80 -103 96 -94 5 4 9 24 9 45 0 29 -5 42 -20 50 -12 6 -20 21 -20
35 0 14 9 30 20 37 11 7 20 21 20 30 0 18 -13 19 -105 10z"/>
<path d="M2623 4145 c-3 -9 -3 -19 1 -22 3 -4 6 1 6 10 0 8 6 18 13 20 9 4 9
6 -1 6 -7 1 -15 -6 -19 -14z"/>
<path d="M2525 4140 c-3 -6 1 -7 9 -4 9 3 16 2 16 -4 0 -6 -6 -13 -12 -15 -8
-3 -6 -6 5 -6 11 -1 17 6 17 19 0 21 -24 28 -35 10z"/>
<path d="M2210 4123 c0 -6 8 -17 18 -24 16 -13 16 -13 2 6 -8 11 -16 22 -17
24 -2 2 -3 0 -3 -6z"/>
<path d="M2321 4114 c0 -11 3 -14 6 -6 3 7 2 16 -1 19 -3 4 -6 -2 -5 -13z"/>
<path d="M3302 4121 c2 -7 7 -12 11 -12 12 1 9 15 -3 20 -7 2 -11 -2 -8 -8z"/>
<path d="M3851 4114 c0 -11 3 -14 6 -6 3 7 2 16 -1 19 -3 4 -6 -2 -5 -13z"/>
<path d="M4902 4100 c0 -19 2 -27 5 -17 2 9 2 25 0 35 -3 9 -5 1 -5 -18z"/>
<path d="M5241 4114 c0 -11 3 -14 6 -6 3 7 2 16 -1 19 -3 4 -6 -2 -5 -13z"/>
<path d="M2140 4100 c0 -5 5 -10 10 -10 6 0 10 5 10 10 0 6 -4 10 -10 10 -5 0
-10 -4 -10 -10z"/>
<path d="M2418 4103 c7 -3 16 -2 19 1 4 3 -2 6 -13 5 -11 0 -14 -3 -6 -6z"/>
<path d="M2590 4046 c0 -2 7 -6 15 -10 8 -3 15 -1 15 4 0 6 -7 10 -15 10 -8 0
-15 -2 -15 -4z"/>
<path d="M2521 4024 c0 -11 3 -14 6 -6 3 7 2 16 -1 19 -3 4 -6 -2 -5 -13z"/>
<path d="M2341 4021 c-8 -5 -9 -11 -3 -15 5 -3 12 1 16 9 6 17 6 18 -13 6z"/>
<path d="M2410 4016 c0 -8 4 -17 9 -20 5 -4 7 3 4 14 -6 23 -13 26 -13 6z"/>
<path d="M3712 4000 c0 -19 2 -27 5 -17 2 9 2 25 0 35 -3 9 -5 1 -5 -18z"/>
<path d="M2230 4010 c0 -5 7 -7 15 -4 8 4 15 8 15 10 0 2 -7 4 -15 4 -8 0 -15
-4 -15 -10z"/>
<path d="M4901 3994 c0 -11 3 -14 6 -6 3 7 2 16 -1 19 -3 4 -6 -2 -5 -13z"/>
<path d="M2851 3964 c0 -11 3 -14 6 -6 3 7 2 16 -1 19 -3 4 -6 -2 -5 -13z"/>
<path d="M2870 3961 c0 -25 6 -27 13 -6 4 8 2 17 -3 20 -6 4 -10 -3 -10 -14z"/>
<path d="M2787 3947 c-3 -7 3 -13 14 -13 13 0 15 3 7 13 -6 7 -12 13 -13 13
-2 0 -5 -6 -8 -13z"/>
<path d="M2660 3946 c0 -2 7 -7 16 -10 8 -3 12 -2 9 4 -6 10 -25 14 -25 6z"/>
<path d="M3950 3933 l-25 -18 30 -5 c21 -4 31 -12 33 -26 2 -16 14 -25 45 -32
28 -8 43 -8 48 -1 4 7 12 5 22 -5 26 -26 44 -19 52 20 7 40 -9 61 -31 43 -9
-7 -15 -6 -21 3 -8 15 -77 38 -109 38 -11 0 -31 -8 -44 -17z"/>
<path d="M2405 3919 c-4 -6 -4 -13 -1 -16 3 -4 6 -1 6 6 0 8 6 11 16 7 8 -3
12 -2 9 4 -8 13 -22 13 -30 -1z"/>
<path d="M2481 3914 c0 -11 3 -14 6 -6 3 7 2 16 -1 19 -3 4 -6 -2 -5 -13z"/>
<path d="M2657 3919 c7 -7 15 -10 18 -7 3 3 -2 9 -12 12 -14 6 -15 5 -6 -5z"/>
<path d="M2246 3904 c-4 -9 -4 -19 -1 -22 3 -3 5 0 5 6 0 6 8 9 18 6 10 -4 13
-2 7 3 -5 4 -13 12 -16 16 -4 4 -9 0 -13 -9z"/>
<path d="M2341 3904 c0 -11 3 -14 6 -6 3 7 2 16 -1 19 -3 4 -6 -2 -5 -13z"/>
<path d="M2160 3890 c0 -5 5 -10 10 -10 6 0 10 5 10 10 0 6 -4 10 -10 10 -5 0
-10 -4 -10 -10z"/>
<path d="M2745 3874 c-16 -8 -37 -22 -46 -30 -8 -8 -20 -11 -25 -7 -5 5 -6 4
-2 -1 6 -7 -5 -43 -37 -121 -5 -11 -9 -22 -10 -25 -6 -26 -39 -117 -45 -125
-4 -5 -13 -31 -20 -58 -7 -26 -20 -52 -29 -57 -10 -5 -16 -23 -17 -49 0 -23
-7 -48 -17 -59 -9 -10 -15 -21 -13 -23 2 -2 6 -24 7 -49 3 -36 8 -48 29 -58
20 -11 258 -30 398 -32 21 0 22 -4 23 -82 1 -46 4 -108 7 -138 8 -65 9 -65
128 -55 l83 7 -4 126 c-3 70 -5 173 -6 230 0 56 -5 102 -10 102 -5 0 -9 -20
-9 -44 0 -38 -5 -48 -29 -65 -15 -11 -47 -23 -70 -27 l-41 -7 0 60 0 60 -102
7 c-164 11 -190 16 -182 35 4 9 16 41 26 71 11 30 23 57 27 60 19 14 51 184
51 274 0 107 -4 112 -65 80z"/>
<path d="M3244 3876 c-6 -15 1 -174 9 -196 6 -20 31 -132 32 -145 0 -5 6 -15
14 -21 8 -6 11 -16 8 -21 -4 -6 0 -14 8 -17 9 -3 18 1 22 10 7 18 83 -90 83
-119 0 -10 4 -16 9 -13 5 3 23 -17 41 -44 66 -102 98 -105 209 -14 44 36 84
63 90 60 5 -3 8 0 7 7 0 8 29 40 67 71 37 32 67 61 67 65 0 3 9 38 20 76 l19
70 -29 29 -29 29 -87 -74 c-226 -192 -216 -185 -228 -165 -6 10 -25 37 -42 60
-17 22 -76 109 -132 192 -99 146 -145 194 -158 160z"/>
<path d="M8290 3854 c0 -11 -16 -14 -70 -14 -52 0 -70 -3 -70 -14 0 -13 56
-38 115 -52 39 -9 68 -34 56 -48 -5 -7 5 -28 28 -58 20 -26 97 -127 171 -224
74 -97 144 -181 156 -186 13 -6 38 -8 56 -4 30 5 45 22 128 142 71 105 90 139
79 145 -8 4 -41 25 -74 47 l-60 40 -45 -69 c-25 -38 -47 -69 -50 -69 -3 0 -61
75 -129 165 -83 111 -130 165 -142 165 -11 0 -19 5 -19 11 0 5 -4 7 -10 4 -5
-3 -10 -1 -10 5 0 7 -7 9 -16 6 -9 -4 -22 -2 -28 3 -21 18 -66 21 -66 5z"/>
<path d="M2596 3832 c6 -4 14 -14 17 -22 4 -10 6 -8 6 8 1 15 -5 22 -16 22
-11 0 -14 -3 -7 -8z"/>
<path d="M2631 3824 c0 -11 3 -14 6 -6 3 7 2 16 -1 19 -3 4 -6 -2 -5 -13z"/>
<path d="M2494 3819 c-3 -6 -1 -16 5 -22 9 -9 10 -7 5 7 -6 16 -4 18 10 13 10
-4 15 -3 11 3 -8 13 -22 13 -31 -1z"/>
<path d="M2921 3733 c0 -54 4 -106 8 -117 7 -17 9 -16 24 8 23 34 58 34 96 -1
43 -41 47 -65 15 -102 -32 -39 -27 -39 20 -2 23 18 44 27 53 24 13 -5 15 -2
10 11 -4 10 -7 76 -7 147 l0 129 -32 -20 c-42 -25 -93 -25 -143 0 -22 11 -41
20 -42 20 -2 0 -3 -44 -2 -97z"/>
<path d="M2388 3813 c7 -3 16 -2 19 1 4 3 -2 6 -13 5 -11 0 -14 -3 -6 -6z"/>
<path d="M10305 3780 c-3 -5 -4 -14 -1 -18 7 -12 175 -57 182 -49 17 16 -11
36 -73 51 -37 9 -75 19 -85 22 -9 3 -19 0 -23 -6z"/>
<path d="M3811 3744 c0 -11 3 -14 6 -6 3 7 2 16 -1 19 -3 4 -6 -2 -5 -13z"/>
<path d="M3151 3734 c0 -11 3 -14 6 -6 3 7 2 16 -1 19 -3 4 -6 -2 -5 -13z"/>
<path d="M6287 3703 c-7 -39 -1 -40 11 -4 6 17 7 31 3 31 -5 0 -11 -12 -14
-27z"/>
<path d="M6373 3715 c-3 -9 -3 -18 -1 -21 3 -3 8 4 11 16 6 23 -1 27 -10 5z"/>
<path d="M2470 3711 c0 -6 4 -13 10 -16 6 -3 7 1 4 9 -7 18 -14 21 -14 7z"/>
<path d="M2451 3694 c0 -11 3 -14 6 -6 3 7 2 16 -1 19 -3 4 -6 -2 -5 -13z"/>
<path d="M6572 3690 c0 -14 2 -19 5 -12 2 6 2 18 0 25 -3 6 -5 1 -5 -13z"/>
<path d="M2262 3680 c0 -14 2 -19 5 -12 2 6 2 18 0 25 -3 6 -5 1 -5 -13z"/>
<path d="M6345 3689 c-4 -6 -5 -12 -2 -15 2 -3 7 2 10 11 7 17 1 20 -8 4z"/>
<path d="M6416 3685 c-3 -8 -1 -15 4 -15 6 0 10 7 10 15 0 8 -2 15 -4 15 -2 0
-6 -7 -10 -15z"/>
<path d="M6515 3689 c-4 -6 -5 -12 -2 -15 2 -3 7 2 10 11 7 17 1 20 -8 4z"/>
<path d="M6675 3689 c-4 -6 -5 -12 -2 -15 2 -3 7 2 10 11 7 17 1 20 -8 4z"/>
<path d="M10610 3685 c0 -8 14 -18 33 -23 30 -8 32 -11 29 -50 -5 -59 23 -58
38 1 6 23 13 47 15 54 2 7 -11 17 -33 23 -52 14 -82 13 -82 -5z"/>
<path d="M2180 3680 c0 -5 5 -10 10 -10 6 0 10 5 10 10 0 6 -4 10 -10 10 -5 0
-10 -4 -10 -10z"/>
<path d="M3977 3579 c-8 -28 -3 -34 11 -16 6 7 7 19 3 26 -6 9 -10 6 -14 -10z"/>
<path d="M2791 3554 c0 -11 3 -14 6 -6 3 7 2 16 -1 19 -3 4 -6 -2 -5 -13z"/>
<path d="M9626 3529 c-43 -16 -80 -30 -83 -32 -2 -3 12 -51 31 -107 19 -56 38
-123 41 -149 9 -66 10 -67 40 -273 l28 -188 27 0 c24 0 26 -3 23 -32 -3 -22
-1 -28 5 -20 7 10 12 9 25 -5 8 -10 16 -22 17 -28 2 -14 51 -9 67 7 10 10 10
22 2 52 -7 27 -8 41 0 45 7 5 7 28 0 76 -48 326 -73 464 -104 564 -20 63 -36
115 -38 116 -1 1 -37 -11 -81 -26z m181 -835 c-3 -3 -12 -4 -19 -1 -8 3 -5 6
6 6 11 1 17 -2 13 -5z"/>
<path d="M6481 3464 c0 -11 3 -14 6 -6 3 7 2 16 -1 19 -3 4 -6 -2 -5 -13z"/>
<path d="M2460 3444 c-11 -12 -10 -18 3 -32 12 -12 20 -13 28 -5 8 8 6 11 -6
10 -10 -1 -20 4 -22 11 -3 7 4 12 17 12 12 0 18 5 15 10 -9 14 -21 12 -35 -6z"/>
<path d="M10625 3438 c-37 -105 -45 -202 -15 -172 12 12 50 139 50 166 0 20
-28 25 -35 6z"/>
<path d="M2281 3411 c0 -23 1 -24 8 -6 l8 20 5 -20 c5 -16 6 -15 7 6 1 17 -4
26 -14 26 -10 0 -15 -10 -14 -26z"/>
<path d="M2396 3433 c-12 -12 -6 -33 9 -33 8 0 15 6 15 14 0 17 -14 28 -24 19z"/>
<path d="M2229 3425 c-5 -4 -39 -12 -61 -14 -5 -1 -8 -8 -8 -16 0 -9 9 -15 25
-15 16 0 25 6 25 15 0 21 18 19 23 -2 3 -11 5 -7 6 10 1 27 -1 31 -10 22z"/>
<path d="M2321 3408 c0 -22 1 -22 8 -3 l8 20 5 -20 c5 -16 6 -17 7 -2 0 9 5
17 10 17 5 0 12 -8 14 -17 4 -14 5 -12 6 5 1 18 -4 22 -29 22 -25 0 -30 -4
-29 -22z"/>
<path d="M2121 3393 c1 -17 3 -21 6 -10 2 9 9 17 14 17 5 0 9 5 9 10 0 6 -7
10 -15 10 -10 0 -15 -9 -14 -27z"/>
<path d="M3331 3384 c0 -11 3 -14 6 -6 3 7 2 16 -1 19 -3 4 -6 -2 -5 -13z"/>
<path d="M3810 3371 c0 -6 4 -13 10 -16 6 -3 7 1 4 9 -7 18 -14 21 -14 7z"/>
<path d="M4851 3364 c0 -11 3 -14 6 -6 3 7 2 16 -1 19 -3 4 -6 -2 -5 -13z"/>
<path d="M4901 3364 c0 -11 3 -14 6 -6 3 7 2 16 -1 19 -3 4 -6 -2 -5 -13z"/>
<path d="M6291 3364 c0 -11 3 -14 6 -6 3 7 2 16 -1 19 -3 4 -6 -2 -5 -13z"/>
<path d="M6590 3359 c-7 -11 -10 -23 -7 -25 2 -2 9 7 15 21 14 30 7 33 -8 4z"/>
<path d="M6662 3355 c6 -14 13 -24 14 -22 6 6 -9 47 -17 47 -5 0 -3 -11 3 -25z"/>
<path d="M6702 3355 c0 -16 2 -22 5 -12 2 9 2 23 0 30 -3 6 -5 -1 -5 -18z"/>
<path d="M6750 3361 c0 -11 4 -22 9 -25 4 -3 6 6 3 19 -5 30 -12 33 -12 6z"/>
<path d="M7472 3355 c0 -16 2 -22 5 -12 2 9 2 23 0 30 -3 6 -5 -1 -5 -18z"/>
<path d="M6540 3365 c0 -5 5 -17 10 -25 5 -8 10 -10 10 -5 0 6 -5 17 -10 25
-5 8 -10 11 -10 5z"/>
<path d="M7221 3354 c0 -11 3 -14 6 -6 3 7 2 16 -1 19 -3 4 -6 -2 -5 -13z"/>
<path d="M6431 3344 c0 -11 3 -14 6 -6 3 7 2 16 -1 19 -3 4 -6 -2 -5 -13z"/>
<path d="M6896 3347 c3 -10 9 -15 12 -12 3 3 0 11 -7 18 -10 9 -11 8 -5 -6z"/>
<path d="M6981 3344 c0 -11 3 -14 6 -6 3 7 2 16 -1 19 -3 4 -6 -2 -5 -13z"/>
<path d="M7051 3344 c0 -11 3 -14 6 -6 3 7 2 16 -1 19 -3 4 -6 -2 -5 -13z"/>
<path d="M7321 3344 c0 -11 3 -14 6 -6 3 7 2 16 -1 19 -3 4 -6 -2 -5 -13z"/>
<path d="M7620 3351 c0 -6 4 -13 10 -16 6 -3 7 1 4 9 -7 18 -14 21 -14 7z"/>
<path d="M2371 3324 c0 -11 3 -14 6 -6 3 7 2 16 -1 19 -3 4 -6 -2 -5 -13z"/>
<path d="M2440 3311 c0 -6 4 -13 10 -16 6 -3 7 1 4 9 -7 18 -14 21 -14 7z"/>
<path d="M2212 3301 c2 -7 7 -12 11 -12 12 1 9 15 -3 20 -7 2 -11 -2 -8 -8z"/>
<path d="M2398 3293 c7 -3 16 -2 19 1 4 3 -2 6 -13 5 -11 0 -14 -3 -6 -6z"/>
<path d="M6282 3230 c0 -19 2 -27 5 -17 2 9 2 25 0 35 -3 9 -5 1 -5 -18z"/>
<path d="M7790 3255 c0 -1 -74 -318 -165 -705 -91 -387 -165 -706 -165 -710 0
-14 178 -90 213 -90 10 0 20 -7 23 -15 5 -13 37 -15 204 -15 128 0 200 4 202
10 4 13 160 30 253 28 l70 -2 -62 -3 c-47 -3 -63 -8 -63 -18 0 -13 39 -15 256
-15 200 0 255 3 252 13 -3 8 -39 14 -114 17 l-109 5 -18 95 c-35 190 -68 470
-77 665 -14 279 -27 433 -50 576 -30 185 -22 170 -72 151 -61 -24 -425 -24
-515 -1 -35 9 -63 15 -63 14z"/>
<path d="M6650 3231 c0 -6 4 -13 10 -16 6 -3 7 1 4 9 -7 18 -14 21 -14 7z"/>
<path d="M2451 3208 c1 -18 2 -19 6 -5 2 9 9 14 15 11 7 -4 8 -2 4 4 -12 20
-26 13 -25 -10z"/>
<path d="M2353 3202 c0 -12 5 -22 9 -22 11 0 10 12 -2 30 -7 12 -9 10 -7 -8z"/>
<path d="M4271 3184 c0 -11 3 -14 6 -6 3 7 2 16 -1 19 -3 4 -6 -2 -5 -13z"/>
<path d="M4562 3175 c0 -16 2 -22 5 -12 2 9 2 23 0 30 -3 6 -5 -1 -5 -18z"/>
<path d="M5501 3184 c0 -11 3 -14 6 -6 3 7 2 16 -1 19 -3 4 -6 -2 -5 -13z"/>
<path d="M3432 3170 c0 -14 2 -19 5 -12 2 6 2 18 0 25 -3 6 -5 1 -5 -13z"/>
<path d="M4130 3170 c6 -11 13 -20 16 -20 2 0 0 9 -6 20 -6 11 -13 20 -16 20
-2 0 0 -9 6 -20z"/>
<path d="M5121 3174 c0 -11 3 -14 6 -6 3 7 2 16 -1 19 -3 4 -6 -2 -5 -13z"/>
<path d="M5290 3176 c0 -8 4 -17 9 -20 5 -4 7 3 4 14 -6 23 -13 26 -13 6z"/>
<path d="M3621 3164 c0 -11 3 -14 6 -6 3 7 2 16 -1 19 -3 4 -6 -2 -5 -13z"/>
<path d="M3671 3164 c0 -11 3 -14 6 -6 3 7 2 16 -1 19 -3 4 -6 -2 -5 -13z"/>
<path d="M3711 3164 c0 -11 3 -14 6 -6 3 7 2 16 -1 19 -3 4 -6 -2 -5 -13z"/>
<path d="M3961 3164 c0 -11 3 -14 6 -6 3 7 2 16 -1 19 -3 4 -6 -2 -5 -13z"/>
<path d="M4011 3164 c0 -11 3 -14 6 -6 3 7 2 16 -1 19 -3 4 -6 -2 -5 -13z"/>
<path d="M4221 3164 c0 -11 3 -14 6 -6 3 7 2 16 -1 19 -3 4 -6 -2 -5 -13z"/>
<path d="M4341 3164 c0 -11 3 -14 6 -6 3 7 2 16 -1 19 -3 4 -6 -2 -5 -13z"/>
<path d="M4701 3164 c0 -11 3 -14 6 -6 3 7 2 16 -1 19 -3 4 -6 -2 -5 -13z"/>
<path d="M4751 3164 c0 -11 3 -14 6 -6 3 7 2 16 -1 19 -3 4 -6 -2 -5 -13z"/>
<path d="M4801 3164 c0 -11 3 -14 6 -6 3 7 2 16 -1 19 -3 4 -6 -2 -5 -13z"/>
<path d="M5151 3164 c0 -11 3 -14 6 -6 3 7 2 16 -1 19 -3 4 -6 -2 -5 -13z"/>
<path d="M5421 3164 c0 -11 3 -14 6 -6 3 7 2 16 -1 19 -3 4 -6 -2 -5 -13z"/>
<path d="M5531 3164 c0 -11 3 -14 6 -6 3 7 2 16 -1 19 -3 4 -6 -2 -5 -13z"/>
<path d="M5581 3164 c0 -11 3 -14 6 -6 3 7 2 16 -1 19 -3 4 -6 -2 -5 -13z"/>
<path d="M5621 3164 c0 -11 3 -14 6 -6 3 7 2 16 -1 19 -3 4 -6 -2 -5 -13z"/>
<path d="M3505 3160 c3 -5 8 -10 11 -10 2 0 4 5 4 10 0 6 -5 10 -11 10 -5 0
-7 -4 -4 -10z"/>
<path d="M4830 3151 c0 -5 7 -11 15 -15 8 -3 15 -1 15 3 0 5 -7 11 -15 15 -8
3 -15 1 -15 -3z"/>
<path d="M10522 3054 c-16 -61 -20 -90 -13 -97 17 -17 27 1 50 86 25 94 26 97
3 97 -13 0 -22 -19 -40 -86z"/>
<path d="M6282 3105 c0 -16 2 -22 5 -12 2 9 2 23 0 30 -3 6 -5 -1 -5 -18z"/>
<path d="M6412 3105 c0 -16 2 -22 5 -12 2 9 2 23 0 30 -3 6 -5 -1 -5 -18z"/>
<path d="M6756 3110 c7 -28 12 -35 18 -29 2 2 -2 15 -10 29 l-15 25 7 -25z"/>
<path d="M2433 3102 c0 -12 5 -22 9 -22 11 0 10 12 -2 30 -7 12 -9 10 -7 -8z"/>
<path d="M6582 3100 c0 -14 2 -19 5 -12 2 6 2 18 0 25 -3 6 -5 1 -5 -13z"/>
<path d="M6682 3100 c0 -14 2 -19 5 -12 2 6 2 18 0 25 -3 6 -5 1 -5 -13z"/>
<path d="M6531 3094 c0 -11 3 -14 6 -6 3 7 2 16 -1 19 -3 4 -6 -2 -5 -13z"/>
<path d="M2230 3091 c0 -6 5 -13 10 -16 6 -3 10 1 10 9 0 9 -4 16 -10 16 -5 0
-10 -4 -10 -9z"/>
<path d="M2309 3092 c9 -7 10 -11 2 -15 -7 -4 -8 -5 0 -3 15 2 13 20 -3 24
-10 3 -10 2 1 -6z"/>
<path d="M2370 3089 c0 -5 5 -7 10 -4 6 3 10 8 10 11 0 2 -4 4 -10 4 -5 0 -10
-5 -10 -11z"/>
<path d="M2355 2999 c-11 -16 -1 -19 13 -3 7 8 8 14 3 14 -5 0 -13 -5 -16 -11z"/>
<path d="M2408 2973 c7 -3 16 -2 19 1 4 3 -2 6 -13 5 -11 0 -14 -3 -6 -6z"/>
<path d="M2511 2903 c-1 -25 -16 -31 -24 -10 -4 9 -6 9 -6 0 -1 -17 19 -27 31
-15 5 5 8 18 5 28 -4 16 -5 15 -6 -3z"/>
<path d="M2534 2909 c-3 -6 -1 -16 5 -22 9 -9 10 -7 5 7 -6 16 -4 18 10 13 10
-4 15 -3 11 3 -8 13 -22 13 -31 -1z"/>
<path d="M2318 2903 c7 -3 16 -2 19 1 4 3 -2 6 -13 5 -11 0 -14 -3 -6 -6z"/>
<path d="M2250 2875 c0 -8 5 -15 10 -15 6 0 10 7 10 15 0 8 -4 15 -10 15 -5 0
-10 -7 -10 -15z"/>
<path d="M10451 2793 c-31 -119 -34 -134 -23 -145 7 -7 15 -9 18 -5 11 11 53
175 46 181 -15 16 -32 2 -41 -31z"/>
<path d="M8935 2801 c18 -31 443 -69 459 -42 4 6 -39 10 -124 10 -133 0 -287
16 -304 32 -13 12 -39 12 -31 0z"/>
<path d="M4661 2764 c0 -11 3 -14 6 -6 3 7 2 16 -1 19 -3 4 -6 -2 -5 -13z"/>
<path d="M2591 2704 c0 -11 3 -14 6 -6 3 7 2 16 -1 19 -3 4 -6 -2 -5 -13z"/>
<path d="M2615 2710 c-9 -15 4 -30 23 -29 15 1 15 2 0 6 -10 2 -18 9 -18 15 0
5 7 7 16 4 8 -3 12 -2 9 4 -8 13 -22 13 -30 0z"/>
<path d="M592 2699 c-176 -32 -212 -278 -52 -359 52 -26 134 -27 177 0 l32 19
65 -67 c63 -64 66 -66 83 -49 17 17 15 20 -48 82 l-67 65 19 37 c11 21 19 58
19 86 0 121 -105 207 -228 186z m102 -53 c72 -30 107 -135 68 -206 -23 -42
-84 -80 -130 -80 -82 0 -152 68 -152 150 0 111 108 180 214 136z"/>
<path d="M2338 2703 c7 -3 16 -2 19 1 4 3 -2 6 -13 5 -11 0 -14 -3 -6 -6z"/>
<path d="M2416 2697 c3 -10 9 -15 12 -12 3 3 0 11 -7 18 -10 9 -11 8 -5 -6z"/>
<path d="M2265 2670 c3 -5 10 -10 16 -10 5 0 9 5 9 10 0 6 -7 10 -16 10 -8 0
-12 -4 -9 -10z"/>
<path d="M3851 2644 c0 -11 3 -14 6 -6 3 7 2 16 -1 19 -3 4 -6 -2 -5 -13z"/>
<path d="M1460 2610 c0 -11 6 -20 13 -20 9 0 8 -3 -2 -9 -9 -6 -10 -11 -2 -15
6 -4 14 1 18 10 4 10 2 19 -5 22 -6 2 -8 10 -5 18 3 8 0 14 -6 14 -6 0 -11 -9
-11 -20z"/>
<path d="M4101 2614 c0 -11 3 -14 6 -6 3 7 2 16 -1 19 -3 4 -6 -2 -5 -13z"/>
<path d="M1362 2590 c0 -19 2 -27 5 -17 2 9 2 25 0 35 -3 9 -5 1 -5 -18z"/>
<path d="M1381 2598 c-1 -15 4 -30 10 -33 17 -11 18 -2 4 30 l-13 30 -1 -27z"/>
<path d="M1421 2593 c-1 -24 3 -33 15 -33 12 0 14 3 6 13 -5 6 -12 21 -15 32
-3 13 -5 9 -6 -12z"/>
<path d="M1260 2596 c0 -8 5 -18 11 -22 8 -4 7 -9 -2 -15 -11 -7 -10 -9 4 -9
19 0 23 25 6 36 -8 4 -7 9 2 15 11 7 10 9 -3 9 -10 0 -18 -6 -18 -14z"/>
<path d="M1308 2577 c3 -18 7 -26 10 -19 3 10 7 10 18 1 9 -8 14 -8 14 -1 0 6
-5 14 -11 17 -6 4 -8 12 -6 19 3 7 -3 12 -12 13 -14 1 -16 -5 -13 -30z"/>
<path d="M2340 2591 c0 -6 4 -13 10 -16 6 -3 7 1 4 9 -7 18 -14 21 -14 7z"/>
<path d="M2445 2589 c-4 -6 -5 -12 -2 -15 2 -3 7 2 10 11 7 17 1 20 -8 4z"/>
<path d="M2493 2581 c0 -11 5 -18 9 -15 4 3 5 11 1 19 -7 21 -12 19 -10 -4z"/>
<path d="M2406 2575 c4 -8 8 -15 10 -15 2 0 4 7 4 15 0 8 -4 15 -10 15 -5 0
-7 -7 -4 -15z"/>
<path d="M2280 2564 c0 -8 5 -12 10 -9 6 3 10 10 10 16 0 5 -4 9 -10 9 -5 0
-10 -7 -10 -16z"/>
<path d="M4902 2530 c0 -19 2 -27 5 -17 2 9 2 25 0 35 -3 9 -5 1 -5 -18z"/>
<path d="M4621 2514 c0 -11 3 -14 6 -6 3 7 2 16 -1 19 -3 4 -6 -2 -5 -13z"/>
<path d="M4801 2514 c0 -11 3 -14 6 -6 3 7 2 16 -1 19 -3 4 -6 -2 -5 -13z"/>
<path d="M5511 2514 c0 -11 3 -14 6 -6 3 7 2 16 -1 19 -3 4 -6 -2 -5 -13z"/>
<path d="M5851 2514 c0 -11 3 -14 6 -6 3 7 2 16 -1 19 -3 4 -6 -2 -5 -13z"/>
<path d="M10384 2518 c-5 -7 -19 -48 -30 -90 -18 -64 -19 -79 -9 -88 18 -15
27 4 51 97 13 53 15 76 7 84 -8 8 -13 7 -19 -3z"/>
<path d="M2650 2495 c0 -8 2 -15 4 -15 2 0 6 7 10 15 3 8 1 15 -4 15 -6 0 -10
-7 -10 -15z"/>
<path d="M2443 2483 c19 -5 23 -19 7 -26 -6 -3 -5 -4 2 -3 7 1 14 10 16 19 3
12 -3 17 -20 16 -17 -1 -18 -3 -5 -6z"/>
<path d="M2481 2474 c0 -11 3 -14 6 -6 3 7 2 16 -1 19 -3 4 -6 -2 -5 -13z"/>
<path d="M2286 2473 c-11 -11 -6 -23 9 -23 8 0 15 4 15 9 0 13 -16 22 -24 14z"/>
<path d="M3770 2271 c0 -6 4 -13 10 -16 6 -3 7 1 4 9 -7 18 -14 21 -14 7z"/>
<path d="M4230 2271 c0 -6 4 -13 10 -16 6 -3 7 1 4 9 -7 18 -14 21 -14 7z"/>
<path d="M1657 2224 c-13 -14 -7 -52 10 -58 25 -10 51 20 37 42 -12 19 -36 27
-47 16z m37 -35 c-8 -14 -34 -11 -34 4 0 8 3 17 7 20 9 9 34 -13 27 -24z"/>
<path d="M1721 2199 c1 -19 3 -26 6 -16 5 18 6 18 24 1 18 -16 19 -16 19 14 0
18 -4 32 -10 32 -5 0 -10 -5 -10 -11 0 -8 -5 -8 -15 1 -13 11 -15 8 -14 -21z"/>
<path d="M1531 2189 c-14 -41 -14 -44 3 -30 7 6 21 8 31 5 16 -7 16 -5 1 25
-9 17 -18 31 -20 31 -2 0 -9 -14 -15 -31z"/>
<path d="M1588 2190 c6 -39 19 -39 18 0 -1 16 -6 30 -12 30 -6 0 -9 -13 -6
-30z"/>
<path d="M1620 2198 c0 -15 5 -30 10 -33 13 -8 13 25 0 45 -8 12 -10 9 -10
-12z"/>
<path d="M10303 2208 c-6 -7 -14 -23 -18 -36 -6 -21 -11 -23 -46 -17 -34 6
-39 4 -39 -13 0 -14 9 -21 29 -25 16 -3 40 -9 53 -12 22 -6 25 -2 37 45 14 53
5 84 -16 58z"/>
<path d="M1430 2185 c0 -31 -17 -33 -23 -2 -4 15 -5 12 -4 -8 1 -20 8 -31 20
-33 14 -3 17 4 17 32 0 20 -2 36 -5 36 -3 0 -5 -11 -5 -25z"/>
<path d="M1467 2203 c-4 -3 -7 -17 -7 -30 0 -18 5 -23 25 -23 14 0 25 4 25 9
0 5 -9 7 -20 4 -15 -4 -20 0 -20 15 0 13 8 22 23 25 20 4 20 4 1 6 -11 0 -24
-2 -27 -6z"/>
<path d="M2620 2196 c0 -9 -7 -12 -20 -9 -14 4 -20 0 -20 -10 0 -20 22 -35 28
-19 2 7 8 10 13 6 5 -3 9 6 9 20 0 14 -2 26 -5 26 -3 0 -5 -6 -5 -14z"/>
<path d="M1304 2194 c-15 -6 -4 -64 12 -64 8 0 14 5 14 10 0 6 -6 10 -12 10
-10 0 -9 3 1 9 11 7 11 9 0 14 -10 4 -10 6 -1 6 6 1 12 6 12 11 0 10 -7 12
-26 4z"/>
<path d="M1340 2170 c0 -27 3 -31 23 -28 16 2 22 10 22 28 0 18 -6 26 -22 28
-20 3 -23 -1 -23 -28z m35 -10 c-6 -9 -9 -9 -16 1 -10 17 0 34 13 21 6 -6 7
-16 3 -22z"/>
<path d="M2405 2181 c-3 -5 -1 -12 5 -16 6 -4 8 -11 5 -16 -4 -5 -2 -9 3 -9 6
0 9 11 8 25 -1 26 -10 32 -21 16z"/>
<path d="M2491 2167 c0 -13 3 -16 6 -8 5 11 7 11 14 0 7 -11 9 -11 9 2 0 9 -7
19 -15 23 -11 4 -15 -1 -14 -17z"/>
<path d="M2535 2181 c-8 -15 3 -31 21 -31 9 0 14 7 12 17 -4 20 -24 28 -33 14z
m25 -11 c0 -5 -5 -10 -11 -10 -5 0 -7 5 -4 10 3 6 8 10 11 10 2 0 4 -4 4 -10z"/>
<path d="M2341 2152 c1 -18 3 -21 6 -9 4 14 8 16 19 6 12 -10 13 -9 8 4 -3 8
-12 18 -20 21 -10 4 -14 -2 -13 -22z"/>
<path d="M2445 2170 c-8 -13 3 -30 18 -30 7 0 6 4 -3 10 -13 9 -13 11 0 20 9
6 10 10 3 10 -6 0 -15 -4 -18 -10z"/>
<path d="M2228 2140 c3 -14 7 -20 9 -14 2 6 15 9 28 6 21 -3 24 -1 19 13 -5
13 -9 14 -15 3 -7 -10 -9 -10 -9 2 0 9 -8 16 -18 16 -14 0 -17 -6 -14 -26z"/>
<path d="M2296 2162 c-8 -14 6 -53 18 -49 18 6 20 57 2 57 -8 0 -17 -4 -20 -8z
m24 -12 c0 -5 -5 -10 -11 -10 -5 0 -7 5 -4 10 3 6 8 10 11 10 2 0 4 -4 4 -10z"/>
<path d="M3902 2150 c0 -14 2 -19 5 -12 2 6 2 18 0 25 -3 6 -5 1 -5 -13z"/>
<path d="M4001 2144 c0 -11 3 -14 6 -6 3 7 2 16 -1 19 -3 4 -6 -2 -5 -13z"/>
<path d="M2611 2064 c0 -11 3 -14 6 -6 3 7 2 16 -1 19 -3 4 -6 -2 -5 -13z"/>
<path d="M2297 2045 c-6 -15 10 -32 20 -21 4 3 1 6 -5 6 -6 0 -9 7 -6 15 4 8
4 15 1 15 -3 0 -7 -7 -10 -15z"/>
<path d="M245 1740 c-3 -6 0 -12 7 -15 26 -10 2373 0 2371 10 -4 14 -2369 19
-2378 5z"/>
<path d="M2950 1735 c0 -12 20 -15 120 -15 100 0 120 3 120 15 0 13 -20 15
-120 15 -100 0 -120 -2 -120 -15z"/>
<path d="M3480 1735 c0 -13 227 -15 2007 -13 1594 2 2007 6 2011 16 3 9 -403
12 -2007 12 -1782 0 -2011 -2 -2011 -15z"/>
<path d="M9100 1735 c0 -12 20 -15 120 -15 100 0 120 3 120 15 0 13 -20 15
-120 15 -100 0 -120 -2 -120 -15z"/>
<path d="M9670 1735 c0 -13 74 -15 627 -13 490 2 627 6 631 16 3 9 -127 12
-627 12 -556 0 -631 -2 -631 -15z"/>
<path d="M7256 1005 c-112 -39 -126 -47 -110 -73 10 -15 34 -17 208 -20 l196
-2 2 35 c4 102 8 96 -49 73 -26 -10 -41 -10 -75 0 -24 7 -50 15 -58 17 -8 2
-60 -11 -114 -30z"/>
<path d="M7992 1003 c-105 -36 -124 -51 -102 -78 11 -13 43 -15 204 -13 l191
3 3 49 c5 70 -1 79 -35 61 -35 -19 -81 -19 -113 0 -32 19 -28 19 -148 -22z"/>
<path d="M8888 685 c-3 -3 -23 -8 -45 -10 -21 -1 -81 -18 -133 -36 -86 -31
-95 -36 -95 -59 l0 -25 208 -3 207 -2 0 60 c0 33 -3 61 -7 61 -103 18 -128 20
-135 14z m77 -25 c-3 -5 -18 -9 -33 -9 l-27 1 30 8 c17 4 31 8 33 9 2 0 0 -3
-3 -9z"/>
<path d="M2586 673 c-3 -3 -6 -33 -6 -65 l0 -58 208 2 207 3 0 25 c0 23 -10
28 -109 63 -106 38 -111 38 -143 23 -42 -20 -102 -21 -129 -1 -12 8 -24 11
-28 8z"/>
<path d="M3410 663 c-33 -14 -70 -14 -133 2 l-28 8 3 -59 3 -59 205 0 205 0 0
25 c0 23 -9 28 -105 62 -58 20 -107 37 -110 37 -3 -1 -21 -7 -40 -16z"/>
<path d="M9395 640 c-91 -32 -100 -37 -100 -60 l0 -25 208 -3 208 -2 -3 61 -3
62 -105 1 c-96 1 -114 -2 -205 -34z"/>
</g>
</svg>
